<svg width="279" height="85" viewBox="0 0 279 85" fill="none" xmlns="http://www.w3.org/2000/svg">
<rect width="279" height="85" rx="10" fill="#141D2F"/>
<g clip-path="url(#clip0_0_38)">
<path d="M43.4366 30H42.5126V27.426C42.5126 27.2353 42.4686 27.0887 42.3806 26.986C42.2926 26.8833 42.1386 26.832 41.9186 26.832H39.5206V30H38.5966V22.3H41.3466C41.7426 22.3 42.0873 22.3587 42.3806 22.476C42.674 22.586 42.916 22.7363 43.1066 22.927C43.3046 23.1177 43.4513 23.3413 43.5466 23.598C43.6493 23.8473 43.7006 24.1113 43.7006 24.39V24.72C43.7006 25.006 43.62 25.292 43.4586 25.578C43.3046 25.864 43.0626 26.084 42.7326 26.238V26.37C42.9526 26.4067 43.125 26.4947 43.2496 26.634C43.3743 26.7733 43.4366 26.9713 43.4366 27.228V30ZM39.5206 25.974H41.2366C41.7573 25.974 42.1423 25.864 42.3916 25.644C42.6483 25.4167 42.7766 25.0867 42.7766 24.654V24.456C42.7766 24.0673 42.6483 23.7557 42.3916 23.521C42.1423 23.279 41.7573 23.158 41.2366 23.158H39.5206V25.974ZM45.981 27.536C46.003 28.0787 46.1716 28.515 46.487 28.845C46.8023 29.175 47.2423 29.34 47.807 29.34C48.0636 29.34 48.2873 29.3107 48.478 29.252C48.6686 29.1933 48.83 29.1127 48.962 29.01C49.1013 28.9073 49.2113 28.79 49.292 28.658C49.38 28.5187 49.4496 28.372 49.501 28.218L50.315 28.438C50.161 28.944 49.875 29.3583 49.457 29.681C49.0463 29.9963 48.489 30.154 47.785 30.154C47.3963 30.154 47.037 30.088 46.707 29.956C46.3843 29.8167 46.1056 29.6223 45.871 29.373C45.6363 29.1237 45.453 28.8267 45.321 28.482C45.189 28.1373 45.123 27.756 45.123 27.338V27.074C45.123 26.6927 45.189 26.337 45.321 26.007C45.4603 25.677 45.651 25.3947 45.893 25.16C46.135 24.918 46.4173 24.731 46.74 24.599C47.07 24.4597 47.4256 24.39 47.807 24.39C48.2543 24.39 48.6393 24.4743 48.962 24.643C49.292 24.8043 49.5596 25.006 49.765 25.248C49.9776 25.49 50.1316 25.754 50.227 26.04C50.3296 26.326 50.381 26.59 50.381 26.832V27.536H45.981ZM47.807 25.204C47.565 25.204 47.3376 25.2443 47.125 25.325C46.9196 25.3983 46.7363 25.5047 46.575 25.644C46.421 25.7833 46.2926 25.9483 46.19 26.139C46.0946 26.3223 46.0323 26.524 46.003 26.744H49.523C49.5083 26.5093 49.4496 26.2967 49.347 26.106C49.2516 25.9153 49.1233 25.754 48.962 25.622C48.808 25.49 48.6283 25.3873 48.423 25.314C48.225 25.2407 48.0196 25.204 47.807 25.204ZM52.7493 32.2H51.8913V24.544H52.7493V25.402H52.8813C53.072 25.072 53.336 24.8227 53.6733 24.654C54.0107 24.478 54.3773 24.39 54.7733 24.39C55.1107 24.39 55.4297 24.4523 55.7303 24.577C56.031 24.7017 56.295 24.8813 56.5223 25.116C56.757 25.3507 56.9403 25.6403 57.0723 25.985C57.2117 26.3297 57.2813 26.722 57.2813 27.162V27.382C57.2813 27.8293 57.2153 28.2253 57.0833 28.57C56.9513 28.9147 56.768 29.2043 56.5333 29.439C56.306 29.6737 56.0383 29.8533 55.7303 29.978C55.4223 30.0953 55.096 30.154 54.7513 30.154C54.5753 30.154 54.3957 30.132 54.2123 30.088C54.029 30.0513 53.853 29.9927 53.6843 29.912C53.523 29.824 53.3727 29.7213 53.2333 29.604C53.094 29.4793 52.9767 29.3327 52.8813 29.164H52.7493V32.2ZM54.5753 29.34C54.8393 29.34 55.0813 29.296 55.3013 29.208C55.5213 29.1127 55.712 28.9807 55.8733 28.812C56.042 28.6433 56.1703 28.438 56.2583 28.196C56.3537 27.954 56.4013 27.6827 56.4013 27.382V27.162C56.4013 26.8687 56.3537 26.6047 56.2583 26.37C56.1703 26.128 56.042 25.9227 55.8733 25.754C55.712 25.578 55.5177 25.4423 55.2903 25.347C55.0703 25.2517 54.832 25.204 54.5753 25.204C54.3187 25.204 54.0803 25.2553 53.8603 25.358C53.6403 25.4533 53.446 25.589 53.2773 25.765C53.116 25.941 52.9877 26.1537 52.8923 26.403C52.797 26.645 52.7493 26.9127 52.7493 27.206V27.338C52.7493 27.6387 52.797 27.9137 52.8923 28.163C52.9877 28.405 53.116 28.614 53.2773 28.79C53.446 28.966 53.6403 29.1017 53.8603 29.197C54.0803 29.2923 54.3187 29.34 54.5753 29.34ZM63.9727 27.338C63.9727 27.7927 63.8957 28.196 63.7417 28.548C63.595 28.8927 63.397 29.186 63.1477 29.428C62.8983 29.6627 62.605 29.8423 62.2677 29.967C61.9377 30.0917 61.593 30.154 61.2337 30.154C60.867 30.154 60.5187 30.0917 60.1887 29.967C59.8587 29.8423 59.569 29.6627 59.3197 29.428C59.0703 29.186 58.8687 28.8927 58.7147 28.548C58.568 28.196 58.4947 27.7927 58.4947 27.338V27.206C58.4947 26.7587 58.568 26.3627 58.7147 26.018C58.8687 25.666 59.0703 25.369 59.3197 25.127C59.5763 24.885 59.8697 24.7017 60.1997 24.577C60.5297 24.4523 60.8743 24.39 61.2337 24.39C61.593 24.39 61.9377 24.4523 62.2677 24.577C62.5977 24.7017 62.8873 24.885 63.1367 25.127C63.3933 25.369 63.595 25.666 63.7417 26.018C63.8957 26.3627 63.9727 26.7587 63.9727 27.206V27.338ZM61.2337 29.34C61.4977 29.34 61.7397 29.296 61.9597 29.208C62.187 29.1127 62.385 28.977 62.5537 28.801C62.7223 28.625 62.8543 28.416 62.9497 28.174C63.045 27.9247 63.0927 27.646 63.0927 27.338V27.206C63.0927 26.9127 63.045 26.645 62.9497 26.403C62.8543 26.1537 62.7223 25.941 62.5537 25.765C62.385 25.589 62.187 25.4533 61.9597 25.358C61.7323 25.2553 61.4903 25.204 61.2337 25.204C60.977 25.204 60.735 25.2553 60.5077 25.358C60.2803 25.4533 60.0823 25.589 59.9137 25.765C59.745 25.941 59.613 26.1537 59.5177 26.403C59.4223 26.645 59.3747 26.9127 59.3747 27.206V27.338C59.3747 27.646 59.4223 27.9247 59.5177 28.174C59.613 28.416 59.745 28.625 59.9137 28.801C60.0823 28.977 60.2767 29.1127 60.4967 29.208C60.724 29.296 60.9697 29.34 61.2337 29.34ZM66.693 25.952C66.693 26.216 66.803 26.4177 67.023 26.557C67.2504 26.6963 67.661 26.788 68.255 26.832C68.893 26.8833 69.377 27.0373 69.707 27.294C70.0444 27.5433 70.213 27.91 70.213 28.394V28.46C70.213 28.724 70.158 28.9623 70.048 29.175C69.9454 29.3803 69.7987 29.5563 69.608 29.703C69.4247 29.8497 69.1974 29.9597 68.926 30.033C68.662 30.1137 68.3724 30.154 68.057 30.154C67.6317 30.154 67.265 30.099 66.957 29.989C66.6564 29.8717 66.4034 29.7213 66.198 29.538C66 29.3473 65.8497 29.1347 65.747 28.9C65.6444 28.658 65.5857 28.416 65.571 28.174L66.385 27.976C66.4217 28.394 66.583 28.7313 66.869 28.988C67.155 29.2373 67.5364 29.362 68.013 29.362C68.4164 29.362 68.739 29.285 68.981 29.131C69.2304 28.9697 69.355 28.746 69.355 28.46C69.355 28.152 69.234 27.932 68.992 27.8C68.75 27.668 68.3577 27.5837 67.815 27.547C67.1844 27.503 66.7004 27.3563 66.363 27.107C66.0257 26.8577 65.857 26.4947 65.857 26.018V25.952C65.857 25.6953 65.912 25.4717 66.022 25.281C66.132 25.083 66.2787 24.918 66.462 24.786C66.6527 24.654 66.8654 24.555 67.1 24.489C67.3347 24.423 67.5804 24.39 67.837 24.39C68.1964 24.39 68.5117 24.4413 68.783 24.544C69.0544 24.6393 69.2817 24.7677 69.465 24.929C69.6484 25.083 69.7877 25.2627 69.883 25.468C69.9857 25.6733 70.0517 25.8787 70.081 26.084L69.267 26.282C69.2304 25.93 69.0874 25.655 68.838 25.457C68.596 25.259 68.277 25.16 67.881 25.16C67.727 25.16 67.5767 25.1783 67.43 25.215C67.2907 25.2443 67.166 25.292 67.056 25.358C66.946 25.424 66.858 25.5083 66.792 25.611C66.726 25.7063 66.693 25.82 66.693 25.952Z" fill="white"/>
<path d="M54.4976 60.224C53.8682 60.224 53.3029 60.1493 52.8016 60C52.3002 59.84 51.8736 59.6213 51.5216 59.344C51.1696 59.0667 50.8976 58.7413 50.7056 58.368C50.5136 57.984 50.4176 57.5573 50.4176 57.088V56.992C50.4176 56.5973 50.4709 56.2507 50.5776 55.952C50.6949 55.6533 50.8442 55.3973 51.0256 55.184C51.2176 54.9707 51.4309 54.7947 51.6656 54.656C51.9002 54.5173 52.1456 54.4107 52.4016 54.336V54.048C52.1776 53.9627 51.9589 53.8507 51.7456 53.712C51.5429 53.5733 51.3616 53.408 51.2016 53.216C51.0522 53.0133 50.9296 52.7787 50.8336 52.512C50.7482 52.2347 50.7056 51.9253 50.7056 51.584V51.488C50.7056 51.0293 50.8122 50.6187 51.0256 50.256C51.2389 49.8933 51.5216 49.5893 51.8736 49.344C52.2256 49.088 52.6256 48.896 53.0736 48.768C53.5322 48.64 54.0069 48.576 54.4976 48.576C54.9882 48.576 55.4576 48.64 55.9056 48.768C56.3642 48.896 56.7696 49.088 57.1216 49.344C57.4736 49.5893 57.7562 49.8933 57.9696 50.256C58.1829 50.6187 58.2896 51.0293 58.2896 51.488V51.584C58.2896 51.9253 58.2416 52.2347 58.1456 52.512C58.0602 52.7787 57.9376 53.0133 57.7776 53.216C57.6282 53.408 57.4469 53.5733 57.2336 53.712C57.0309 53.8507 56.8176 53.9627 56.5936 54.048V54.336C56.8496 54.4107 57.0949 54.5173 57.3296 54.656C57.5642 54.7947 57.7722 54.9707 57.9536 55.184C58.1456 55.3973 58.2949 55.6533 58.4016 55.952C58.5189 56.2507 58.5776 56.5973 58.5776 56.992V57.088C58.5776 57.5573 58.4816 57.984 58.2896 58.368C58.0976 58.752 57.8256 59.0827 57.4736 59.36C57.1216 59.6267 56.6896 59.84 56.1776 60C55.6762 60.1493 55.1162 60.224 54.4976 60.224ZM54.4976 58.208C55.1269 58.208 55.6122 58.0693 55.9536 57.792C56.2949 57.504 56.4656 57.1413 56.4656 56.704C56.4656 56.2667 56.2949 55.9093 55.9536 55.632C55.6122 55.344 55.1269 55.2 54.4976 55.2C53.8682 55.2 53.3829 55.344 53.0416 55.632C52.7002 55.9093 52.5296 56.2667 52.5296 56.704C52.5296 57.1413 52.7002 57.504 53.0416 57.792C53.3829 58.0693 53.8682 58.208 54.4976 58.208ZM54.4976 50.592C54.0176 50.592 53.6176 50.7147 53.2976 50.96C52.9776 51.2053 52.8176 51.5147 52.8176 51.888C52.8176 52.2613 52.9776 52.5707 53.2976 52.816C53.6176 53.0613 54.0176 53.184 54.4976 53.184C54.9776 53.184 55.3776 53.0613 55.6976 52.816C56.0176 52.5707 56.1776 52.2613 56.1776 51.888C56.1776 51.5147 56.0176 51.2053 55.6976 50.96C55.3776 50.7147 54.9776 50.592 54.4976 50.592Z" fill="white"/>
</g>
<g clip-path="url(#clip1_0_38)">
<path d="M106.236 22.3H110.966V23.158H107.16V25.71H110.9V26.568H107.16V30H106.236V22.3ZM118.031 27.338C118.031 27.7927 117.954 28.196 117.8 28.548C117.654 28.8927 117.456 29.186 117.206 29.428C116.957 29.6627 116.664 29.8423 116.326 29.967C115.996 30.0917 115.652 30.154 115.292 30.154C114.926 30.154 114.577 30.0917 114.247 29.967C113.917 29.8423 113.628 29.6627 113.378 29.428C113.129 29.186 112.927 28.8927 112.773 28.548C112.627 28.196 112.553 27.7927 112.553 27.338V27.206C112.553 26.7587 112.627 26.3627 112.773 26.018C112.927 25.666 113.129 25.369 113.378 25.127C113.635 24.885 113.928 24.7017 114.258 24.577C114.588 24.4523 114.933 24.39 115.292 24.39C115.652 24.39 115.996 24.4523 116.326 24.577C116.656 24.7017 116.946 24.885 117.195 25.127C117.452 25.369 117.654 25.666 117.8 26.018C117.954 26.3627 118.031 26.7587 118.031 27.206V27.338ZM115.292 29.34C115.556 29.34 115.798 29.296 116.018 29.208C116.246 29.1127 116.444 28.977 116.612 28.801C116.781 28.625 116.913 28.416 117.008 28.174C117.104 27.9247 117.151 27.646 117.151 27.338V27.206C117.151 26.9127 117.104 26.645 117.008 26.403C116.913 26.1537 116.781 25.941 116.612 25.765C116.444 25.589 116.246 25.4533 116.018 25.358C115.791 25.2553 115.549 25.204 115.292 25.204C115.036 25.204 114.794 25.2553 114.566 25.358C114.339 25.4533 114.141 25.589 113.972 25.765C113.804 25.941 113.672 26.1537 113.576 26.403C113.481 26.645 113.433 26.9127 113.433 27.206V27.338C113.433 27.646 113.481 27.9247 113.576 28.174C113.672 28.416 113.804 28.625 113.972 28.801C114.141 28.977 114.335 29.1127 114.555 29.208C114.783 29.296 115.028 29.34 115.292 29.34ZM119.619 29.208H121.599V23.092H119.685V22.3H122.457V29.208H124.437V30H119.619V29.208ZM126.354 29.208H128.334V23.092H126.42V22.3H129.192V29.208H131.172V30H126.354V29.208ZM138.237 27.338C138.237 27.7927 138.16 28.196 138.006 28.548C137.86 28.8927 137.662 29.186 137.412 29.428C137.163 29.6627 136.87 29.8423 136.532 29.967C136.202 30.0917 135.858 30.154 135.498 30.154C135.132 30.154 134.783 30.0917 134.453 29.967C134.123 29.8423 133.834 29.6627 133.584 29.428C133.335 29.186 133.133 28.8927 132.979 28.548C132.833 28.196 132.759 27.7927 132.759 27.338V27.206C132.759 26.7587 132.833 26.3627 132.979 26.018C133.133 25.666 133.335 25.369 133.584 25.127C133.841 24.885 134.134 24.7017 134.464 24.577C134.794 24.4523 135.139 24.39 135.498 24.39C135.858 24.39 136.202 24.4523 136.532 24.577C136.862 24.7017 137.152 24.885 137.401 25.127C137.658 25.369 137.86 25.666 138.006 26.018C138.16 26.3627 138.237 26.7587 138.237 27.206V27.338ZM135.498 29.34C135.762 29.34 136.004 29.296 136.224 29.208C136.452 29.1127 136.65 28.977 136.818 28.801C136.987 28.625 137.119 28.416 137.214 28.174C137.31 27.9247 137.357 27.646 137.357 27.338V27.206C137.357 26.9127 137.31 26.645 137.214 26.403C137.119 26.1537 136.987 25.941 136.818 25.765C136.65 25.589 136.452 25.4533 136.224 25.358C135.997 25.2553 135.755 25.204 135.498 25.204C135.242 25.204 135 25.2553 134.772 25.358C134.545 25.4533 134.347 25.589 134.178 25.765C134.01 25.941 133.878 26.1537 133.782 26.403C133.687 26.645 133.639 26.9127 133.639 27.206V27.338C133.639 27.646 133.687 27.9247 133.782 28.174C133.878 28.416 134.01 28.625 134.178 28.801C134.347 28.977 134.541 29.1127 134.761 29.208C134.989 29.296 135.234 29.34 135.498 29.34ZM144.544 30H142.96L142.3 24.94H142.168L141.508 30H139.924L139.066 24.544H139.946L140.672 29.604H140.804L141.442 24.544H143.026L143.664 29.604H143.796L144.522 24.544H145.402L144.544 30ZM147.187 27.536C147.209 28.0787 147.378 28.515 147.693 28.845C148.008 29.175 148.448 29.34 149.013 29.34C149.27 29.34 149.493 29.3107 149.684 29.252C149.875 29.1933 150.036 29.1127 150.168 29.01C150.307 28.9073 150.417 28.79 150.498 28.658C150.586 28.5187 150.656 28.372 150.707 28.218L151.521 28.438C151.367 28.944 151.081 29.3583 150.663 29.681C150.252 29.9963 149.695 30.154 148.991 30.154C148.602 30.154 148.243 30.088 147.913 29.956C147.59 29.8167 147.312 29.6223 147.077 29.373C146.842 29.1237 146.659 28.8267 146.527 28.482C146.395 28.1373 146.329 27.756 146.329 27.338V27.074C146.329 26.6927 146.395 26.337 146.527 26.007C146.666 25.677 146.857 25.3947 147.099 25.16C147.341 24.918 147.623 24.731 147.946 24.599C148.276 24.4597 148.632 24.39 149.013 24.39C149.46 24.39 149.845 24.4743 150.168 24.643C150.498 24.8043 150.766 25.006 150.971 25.248C151.184 25.49 151.338 25.754 151.433 26.04C151.536 26.326 151.587 26.59 151.587 26.832V27.536H147.187ZM149.013 25.204C148.771 25.204 148.544 25.2443 148.331 25.325C148.126 25.3983 147.942 25.5047 147.781 25.644C147.627 25.7833 147.499 25.9483 147.396 26.139C147.301 26.3223 147.238 26.524 147.209 26.744H150.729C150.714 26.5093 150.656 26.2967 150.553 26.106C150.458 25.9153 150.329 25.754 150.168 25.622C150.014 25.49 149.834 25.3873 149.629 25.314C149.431 25.2407 149.226 25.204 149.013 25.204ZM152.987 24.544H154.967V25.27H155.099C155.239 24.9693 155.437 24.7493 155.693 24.61C155.95 24.4633 156.243 24.39 156.573 24.39C157.123 24.39 157.567 24.5697 157.904 24.929C158.242 25.2883 158.421 25.8127 158.443 26.502L157.541 26.634C157.541 26.128 157.42 25.765 157.178 25.545C156.936 25.3177 156.639 25.204 156.287 25.204C156.06 25.204 155.862 25.248 155.693 25.336C155.532 25.424 155.396 25.545 155.286 25.699C155.176 25.853 155.096 26.0327 155.044 26.238C154.993 26.4433 154.967 26.6633 154.967 26.898V29.208H156.353V30H152.855V29.208H154.109V25.336H152.987V24.544ZM161.164 25.952C161.164 26.216 161.274 26.4177 161.494 26.557C161.721 26.6963 162.132 26.788 162.726 26.832C163.364 26.8833 163.848 27.0373 164.178 27.294C164.515 27.5433 164.684 27.91 164.684 28.394V28.46C164.684 28.724 164.629 28.9623 164.519 29.175C164.416 29.3803 164.269 29.5563 164.079 29.703C163.895 29.8497 163.668 29.9597 163.397 30.033C163.133 30.1137 162.843 30.154 162.528 30.154C162.102 30.154 161.736 30.099 161.428 29.989C161.127 29.8717 160.874 29.7213 160.669 29.538C160.471 29.3473 160.32 29.1347 160.218 28.9C160.115 28.658 160.056 28.416 160.042 28.174L160.856 27.976C160.892 28.394 161.054 28.7313 161.34 28.988C161.626 29.2373 162.007 29.362 162.484 29.362C162.887 29.362 163.21 29.285 163.452 29.131C163.701 28.9697 163.826 28.746 163.826 28.46C163.826 28.152 163.705 27.932 163.463 27.8C163.221 27.668 162.828 27.5837 162.286 27.547C161.655 27.503 161.171 27.3563 160.834 27.107C160.496 26.8577 160.328 26.4947 160.328 26.018V25.952C160.328 25.6953 160.383 25.4717 160.493 25.281C160.603 25.083 160.749 24.918 160.933 24.786C161.123 24.654 161.336 24.555 161.571 24.489C161.805 24.423 162.051 24.39 162.308 24.39C162.667 24.39 162.982 24.4413 163.254 24.544C163.525 24.6393 163.752 24.7677 163.936 24.929C164.119 25.083 164.258 25.2627 164.354 25.468C164.456 25.6733 164.522 25.8787 164.552 26.084L163.738 26.282C163.701 25.93 163.558 25.655 163.309 25.457C163.067 25.259 162.748 25.16 162.352 25.16C162.198 25.16 162.047 25.1783 161.901 25.215C161.761 25.2443 161.637 25.292 161.527 25.358C161.417 25.424 161.329 25.5083 161.263 25.611C161.197 25.7063 161.164 25.82 161.164 25.952Z" fill="white"/>
<path d="M120.604 55.2V51.872L123.388 51.104V50.816H117.82V48.8H125.116V52.32L122.14 53.184V53.472H122.524C122.919 53.472 123.308 53.536 123.692 53.664C124.076 53.7813 124.412 53.968 124.7 54.224C124.999 54.48 125.239 54.8 125.42 55.184C125.602 55.5573 125.692 56 125.692 56.512V56.704C125.692 57.2053 125.607 57.6693 125.436 58.096C125.276 58.5227 125.031 58.896 124.7 59.216C124.38 59.5253 123.98 59.7707 123.5 59.952C123.02 60.1333 122.471 60.224 121.852 60.224C121.223 60.224 120.652 60.1227 120.14 59.92C119.628 59.7173 119.191 59.44 118.828 59.088C118.476 58.736 118.204 58.3307 118.012 57.872C117.82 57.4133 117.724 56.928 117.724 56.416V55.744H119.836V56.32C119.836 56.832 120.002 57.2747 120.332 57.648C120.663 58.0213 121.159 58.208 121.82 58.208C122.386 58.208 122.818 58.064 123.116 57.776C123.426 57.488 123.58 57.1093 123.58 56.64C123.58 56.1387 123.415 55.776 123.084 55.552C122.764 55.3173 122.354 55.2 121.852 55.2H120.604ZM129.809 56.832C129.809 57.2053 129.943 57.5307 130.209 57.808C130.487 58.0747 130.913 58.208 131.489 58.208C132.065 58.208 132.519 58.0427 132.849 57.712C133.191 57.3707 133.361 56.928 133.361 56.384V54.944H133.073C132.924 55.3173 132.679 55.6213 132.337 55.856C131.996 56.08 131.511 56.192 130.881 56.192C130.401 56.192 129.953 56.1067 129.537 55.936C129.132 55.7547 128.775 55.504 128.465 55.184C128.167 54.864 127.932 54.48 127.761 54.032C127.591 53.584 127.505 53.088 127.505 52.544V52.352C127.505 51.8187 127.601 51.3227 127.793 50.864C127.985 50.3947 128.252 49.9947 128.593 49.664C128.945 49.3227 129.367 49.056 129.857 48.864C130.359 48.672 130.913 48.576 131.521 48.576C132.076 48.576 132.593 48.6667 133.073 48.848C133.564 49.0293 133.985 49.2853 134.337 49.616C134.689 49.936 134.967 50.3253 135.169 50.784C135.372 51.232 135.473 51.728 135.473 52.272V56.352C135.473 56.96 135.372 57.504 135.169 57.984C134.967 58.464 134.689 58.8693 134.337 59.2C133.985 59.5307 133.569 59.7867 133.089 59.968C132.62 60.1387 132.108 60.224 131.553 60.224C131.009 60.224 130.503 60.1493 130.033 60C129.564 59.84 129.153 59.616 128.801 59.328C128.46 59.0293 128.188 58.672 127.985 58.256C127.793 57.84 127.697 57.3653 127.697 56.832H129.809ZM131.489 50.592C130.945 50.592 130.497 50.7573 130.145 51.088C129.793 51.408 129.617 51.84 129.617 52.384C129.617 52.928 129.793 53.3653 130.145 53.696C130.497 54.016 130.945 54.176 131.489 54.176C132.033 54.176 132.481 54.016 132.833 53.696C133.185 53.3653 133.361 52.928 133.361 52.384C133.361 51.84 133.185 51.408 132.833 51.088C132.481 50.7573 132.033 50.592 131.489 50.592ZM140.198 55.2V51.872L142.982 51.104V50.816H137.414V48.8H144.71V52.32L141.734 53.184V53.472H142.118C142.513 53.472 142.902 53.536 143.286 53.664C143.67 53.7813 144.006 53.968 144.294 54.224C144.593 54.48 144.833 54.8 145.014 55.184C145.195 55.5573 145.286 56 145.286 56.512V56.704C145.286 57.2053 145.201 57.6693 145.03 58.096C144.87 58.5227 144.625 58.896 144.294 59.216C143.974 59.5253 143.574 59.7707 143.094 59.952C142.614 60.1333 142.065 60.224 141.446 60.224C140.817 60.224 140.246 60.1227 139.734 59.92C139.222 59.7173 138.785 59.44 138.422 59.088C138.07 58.736 137.798 58.3307 137.606 57.872C137.414 57.4133 137.318 56.928 137.318 56.416V55.744H139.43V56.32C139.43 56.832 139.595 57.2747 139.926 57.648C140.257 58.0213 140.753 58.208 141.414 58.208C141.979 58.208 142.411 58.064 142.71 57.776C143.019 57.488 143.174 57.1093 143.174 56.64C143.174 56.1387 143.009 55.776 142.678 55.552C142.358 55.3173 141.947 55.2 141.446 55.2H140.198ZM151.083 60.224C150.454 60.224 149.888 60.1493 149.387 60C148.886 59.84 148.459 59.6213 148.107 59.344C147.755 59.0667 147.483 58.7413 147.291 58.368C147.099 57.984 147.003 57.5573 147.003 57.088V56.992C147.003 56.5973 147.056 56.2507 147.163 55.952C147.28 55.6533 147.43 55.3973 147.611 55.184C147.803 54.9707 148.016 54.7947 148.251 54.656C148.486 54.5173 148.731 54.4107 148.987 54.336V54.048C148.763 53.9627 148.544 53.8507 148.331 53.712C148.128 53.5733 147.947 53.408 147.787 53.216C147.638 53.0133 147.515 52.7787 147.419 52.512C147.334 52.2347 147.291 51.9253 147.291 51.584V51.488C147.291 51.0293 147.398 50.6187 147.611 50.256C147.824 49.8933 148.107 49.5893 148.459 49.344C148.811 49.088 149.211 48.896 149.659 48.768C150.118 48.64 150.592 48.576 151.083 48.576C151.574 48.576 152.043 48.64 152.491 48.768C152.95 48.896 153.355 49.088 153.707 49.344C154.059 49.5893 154.342 49.8933 154.555 50.256C154.768 50.6187 154.875 51.0293 154.875 51.488V51.584C154.875 51.9253 154.827 52.2347 154.731 52.512C154.646 52.7787 154.523 53.0133 154.363 53.216C154.214 53.408 154.032 53.5733 153.819 53.712C153.616 53.8507 153.403 53.9627 153.179 54.048V54.336C153.435 54.4107 153.68 54.5173 153.915 54.656C154.15 54.7947 154.358 54.9707 154.539 55.184C154.731 55.3973 154.88 55.6533 154.987 55.952C155.104 56.2507 155.163 56.5973 155.163 56.992V57.088C155.163 57.5573 155.067 57.984 154.875 58.368C154.683 58.752 154.411 59.0827 154.059 59.36C153.707 59.6267 153.275 59.84 152.763 60C152.262 60.1493 151.702 60.224 151.083 60.224ZM151.083 58.208C151.712 58.208 152.198 58.0693 152.539 57.792C152.88 57.504 153.051 57.1413 153.051 56.704C153.051 56.2667 152.88 55.9093 152.539 55.632C152.198 55.344 151.712 55.2 151.083 55.2C150.454 55.2 149.968 55.344 149.627 55.632C149.286 55.9093 149.115 56.2667 149.115 56.704C149.115 57.1413 149.286 57.504 149.627 57.792C149.968 58.0693 150.454 58.208 151.083 58.208ZM151.083 50.592C150.603 50.592 150.203 50.7147 149.883 50.96C149.563 51.2053 149.403 51.5147 149.403 51.888C149.403 52.2613 149.563 52.5707 149.883 52.816C150.203 53.0613 150.603 53.184 151.083 53.184C151.563 53.184 151.963 53.0613 152.283 52.816C152.603 52.5707 152.763 52.2613 152.763 51.888C152.763 51.5147 152.603 51.2053 152.283 50.96C151.963 50.7147 151.563 50.592 151.083 50.592Z" fill="white"/>
</g>
<g clip-path="url(#clip2_0_38)">
<path d="M191.236 22.3H195.966V23.158H192.16V25.71H195.9V26.568H192.16V30H191.236V22.3ZM203.031 27.338C203.031 27.7927 202.954 28.196 202.8 28.548C202.654 28.8927 202.456 29.186 202.206 29.428C201.957 29.6627 201.664 29.8423 201.326 29.967C200.996 30.0917 200.652 30.154 200.292 30.154C199.926 30.154 199.577 30.0917 199.247 29.967C198.917 29.8423 198.628 29.6627 198.378 29.428C198.129 29.186 197.927 28.8927 197.773 28.548C197.627 28.196 197.553 27.7927 197.553 27.338V27.206C197.553 26.7587 197.627 26.3627 197.773 26.018C197.927 25.666 198.129 25.369 198.378 25.127C198.635 24.885 198.928 24.7017 199.258 24.577C199.588 24.4523 199.933 24.39 200.292 24.39C200.652 24.39 200.996 24.4523 201.326 24.577C201.656 24.7017 201.946 24.885 202.195 25.127C202.452 25.369 202.654 25.666 202.8 26.018C202.954 26.3627 203.031 26.7587 203.031 27.206V27.338ZM200.292 29.34C200.556 29.34 200.798 29.296 201.018 29.208C201.246 29.1127 201.444 28.977 201.612 28.801C201.781 28.625 201.913 28.416 202.008 28.174C202.104 27.9247 202.151 27.646 202.151 27.338V27.206C202.151 26.9127 202.104 26.645 202.008 26.403C201.913 26.1537 201.781 25.941 201.612 25.765C201.444 25.589 201.246 25.4533 201.018 25.358C200.791 25.2553 200.549 25.204 200.292 25.204C200.036 25.204 199.794 25.2553 199.566 25.358C199.339 25.4533 199.141 25.589 198.972 25.765C198.804 25.941 198.672 26.1537 198.576 26.403C198.481 26.645 198.433 26.9127 198.433 27.206V27.338C198.433 27.646 198.481 27.9247 198.576 28.174C198.672 28.416 198.804 28.625 198.972 28.801C199.141 28.977 199.335 29.1127 199.555 29.208C199.783 29.296 200.028 29.34 200.292 29.34ZM204.619 29.208H206.599V23.092H204.685V22.3H207.457V29.208H209.437V30H204.619V29.208ZM211.354 29.208H213.334V23.092H211.42V22.3H214.192V29.208H216.172V30H211.354V29.208ZM223.237 27.338C223.237 27.7927 223.16 28.196 223.006 28.548C222.86 28.8927 222.662 29.186 222.412 29.428C222.163 29.6627 221.87 29.8423 221.532 29.967C221.202 30.0917 220.858 30.154 220.498 30.154C220.132 30.154 219.783 30.0917 219.453 29.967C219.123 29.8423 218.834 29.6627 218.584 29.428C218.335 29.186 218.133 28.8927 217.979 28.548C217.833 28.196 217.759 27.7927 217.759 27.338V27.206C217.759 26.7587 217.833 26.3627 217.979 26.018C218.133 25.666 218.335 25.369 218.584 25.127C218.841 24.885 219.134 24.7017 219.464 24.577C219.794 24.4523 220.139 24.39 220.498 24.39C220.858 24.39 221.202 24.4523 221.532 24.577C221.862 24.7017 222.152 24.885 222.401 25.127C222.658 25.369 222.86 25.666 223.006 26.018C223.16 26.3627 223.237 26.7587 223.237 27.206V27.338ZM220.498 29.34C220.762 29.34 221.004 29.296 221.224 29.208C221.452 29.1127 221.65 28.977 221.818 28.801C221.987 28.625 222.119 28.416 222.214 28.174C222.31 27.9247 222.357 27.646 222.357 27.338V27.206C222.357 26.9127 222.31 26.645 222.214 26.403C222.119 26.1537 221.987 25.941 221.818 25.765C221.65 25.589 221.452 25.4533 221.224 25.358C220.997 25.2553 220.755 25.204 220.498 25.204C220.242 25.204 220 25.2553 219.772 25.358C219.545 25.4533 219.347 25.589 219.178 25.765C219.01 25.941 218.878 26.1537 218.782 26.403C218.687 26.645 218.639 26.9127 218.639 27.206V27.338C218.639 27.646 218.687 27.9247 218.782 28.174C218.878 28.416 219.01 28.625 219.178 28.801C219.347 28.977 219.541 29.1127 219.761 29.208C219.989 29.296 220.234 29.34 220.498 29.34ZM229.544 30H227.96L227.3 24.94H227.168L226.508 30H224.924L224.066 24.544H224.946L225.672 29.604H225.804L226.442 24.544H228.026L228.664 29.604H228.796L229.522 24.544H230.402L229.544 30ZM233.254 22.916C233.254 22.7033 233.327 22.5237 233.474 22.377C233.628 22.223 233.811 22.146 234.024 22.146C234.237 22.146 234.416 22.223 234.563 22.377C234.717 22.5237 234.794 22.7033 234.794 22.916C234.794 23.1287 234.717 23.312 234.563 23.466C234.416 23.6127 234.237 23.686 234.024 23.686C233.811 23.686 233.628 23.6127 233.474 23.466C233.327 23.312 233.254 23.1287 233.254 22.916ZM231.692 29.208H233.606V25.336H231.89V24.544H234.464V29.208H236.246V30H231.692V29.208ZM239.153 30H238.295V24.544H239.153V25.468H239.285C239.623 24.7493 240.209 24.39 241.045 24.39C241.676 24.39 242.178 24.588 242.552 24.984C242.926 25.3727 243.113 25.9593 243.113 26.744V30H242.255V26.92C242.255 26.348 242.127 25.919 241.87 25.633C241.614 25.347 241.265 25.204 240.825 25.204C240.305 25.204 239.894 25.3837 239.593 25.743C239.3 26.095 239.153 26.568 239.153 27.162V30ZM249.178 29.164H249.046C248.87 29.494 248.628 29.7433 248.32 29.912C248.019 30.0733 247.689 30.154 247.33 30.154C246.963 30.154 246.618 30.0917 246.296 29.967C245.973 29.8423 245.687 29.6627 245.438 29.428C245.196 29.1933 245.001 28.9037 244.855 28.559C244.715 28.207 244.646 27.8073 244.646 27.36V27.184C244.646 26.744 244.719 26.3517 244.866 26.007C245.012 25.655 245.207 25.3617 245.449 25.127C245.691 24.885 245.973 24.7017 246.296 24.577C246.618 24.4523 246.956 24.39 247.308 24.39C247.704 24.39 248.048 24.478 248.342 24.654C248.642 24.8227 248.877 25.072 249.046 25.402H249.178V24.544H250.036V31.342C250.036 31.5913 249.955 31.7967 249.794 31.958C249.64 32.1193 249.438 32.2 249.189 32.2H245.636V31.408H248.881C249.079 31.408 249.178 31.298 249.178 31.078V29.164ZM247.352 29.34C247.608 29.34 247.847 29.2923 248.067 29.197C248.287 29.1017 248.477 28.966 248.639 28.79C248.807 28.614 248.939 28.405 249.035 28.163C249.13 27.9137 249.178 27.6387 249.178 27.338V27.206C249.178 26.9127 249.13 26.645 249.035 26.403C248.939 26.1537 248.807 25.941 248.639 25.765C248.477 25.589 248.283 25.4533 248.056 25.358C247.836 25.2553 247.601 25.204 247.352 25.204C247.095 25.204 246.853 25.2517 246.626 25.347C246.406 25.4423 246.211 25.578 246.043 25.754C245.881 25.93 245.753 26.139 245.658 26.381C245.57 26.623 245.526 26.8907 245.526 27.184V27.36C245.526 27.668 245.57 27.943 245.658 28.185C245.753 28.427 245.881 28.636 246.043 28.812C246.211 28.9807 246.406 29.1127 246.626 29.208C246.846 29.296 247.088 29.34 247.352 29.34Z" fill="white"/>
<path d="M218.428 56.832C218.428 57.2053 218.561 57.5307 218.828 57.808C219.105 58.0747 219.532 58.208 220.108 58.208C220.684 58.208 221.137 58.0427 221.468 57.712C221.809 57.3707 221.98 56.928 221.98 56.384V54.944H221.692C221.542 55.3173 221.297 55.6213 220.956 55.856C220.614 56.08 220.129 56.192 219.5 56.192C219.02 56.192 218.572 56.1067 218.156 55.936C217.75 55.7547 217.393 55.504 217.084 55.184C216.785 54.864 216.55 54.48 216.38 54.032C216.209 53.584 216.124 53.088 216.124 52.544V52.352C216.124 51.8187 216.22 51.3227 216.412 50.864C216.604 50.3947 216.87 49.9947 217.212 49.664C217.564 49.3227 217.985 49.056 218.476 48.864C218.977 48.672 219.532 48.576 220.14 48.576C220.694 48.576 221.212 48.6667 221.692 48.848C222.182 49.0293 222.604 49.2853 222.956 49.616C223.308 49.936 223.585 50.3253 223.788 50.784C223.99 51.232 224.092 51.728 224.092 52.272V56.352C224.092 56.96 223.99 57.504 223.788 57.984C223.585 58.464 223.308 58.8693 222.956 59.2C222.604 59.5307 222.188 59.7867 221.708 59.968C221.238 60.1387 220.726 60.224 220.172 60.224C219.628 60.224 219.121 60.1493 218.652 60C218.182 59.84 217.772 59.616 217.42 59.328C217.078 59.0293 216.806 58.672 216.604 58.256C216.412 57.84 216.316 57.3653 216.316 56.832H218.428ZM220.108 50.592C219.564 50.592 219.116 50.7573 218.764 51.088C218.412 51.408 218.236 51.84 218.236 52.384C218.236 52.928 218.412 53.3653 218.764 53.696C219.116 54.016 219.564 54.176 220.108 54.176C220.652 54.176 221.1 54.016 221.452 53.696C221.804 53.3653 221.98 52.928 221.98 52.384C221.98 51.84 221.804 51.408 221.452 51.088C221.1 50.7573 220.652 50.592 220.108 50.592Z" fill="white"/>
</g>
<defs>
<clipPath id="clip0_0_38">
<rect width="79" height="48" fill="white" transform="translate(15 18)"/>
</clipPath>
<clipPath id="clip1_0_38">
<rect width="81" height="48" fill="white" transform="translate(95 18)"/>
</clipPath>
<clipPath id="clip2_0_38">
<rect width="89" height="48" fill="white" transform="translate(176 18)"/>
</clipPath>
</defs>
</svg>
